<svg xmlns="http://www.w3.org/2000/svg" viewBox="0 0 64 64" fill="none">
  <path fill="#6525EF" fill-rule="nonzero" d="M 48 21 L 46 19.59 C 46.6932 20.0211 47.361 20.4919 48 21 Z M 24 33 C 23.1716 33 22.5 33.6716 22.5 34.5 C 22.5 35.3284 23.1716 36 24 36 C 24.8284 36 25.5 35.3284 25.5 34.5 C 25.5 33.6716 24.8284 33 24 33 Z M 56 41.5 L 56 48.5 C 56 50.1569 54.6569 51.5 53 51.5 L 11 51.5 C 9.3431 51.5 8 50.1569 8 48.5 L 8 41.5 C 8 28.2452 18.7452 17.5 32 17.5 C 45.2548 17.5 56 28.2452 56 41.5 Z M 27.5 34.5 C 27.5 32.567 25.933 31 24 31 C 22.067 31 20.5 32.567 20.5 34.5 C 20.5 36.433 22.067 38 24 38 C 25.933 38 27.5 36.433 27.5 34.5 Z M 43.5 34.5 C 43.5 32.567 41.933 31 40 31 C 38.067 31 36.5 32.567 36.5 34.5 C 36.5 36.433 38.067 38 40 38 C 41.933 38 43.5 36.433 43.5 34.5 Z M 41.5 34.5 C 41.5 35.3284 40.8284 36 40 36 C 39.1716 36 38.5 35.3284 38.5 34.5 C 38.5 33.6716 39.1716 33 40 33 C 40.8284 33 41.5 33.6716 41.5 34.5 Z M 17 12.5 C 16.4477 12.5 16 12.9477 16 13.5 L 16 21 C 16.639 20.4919 17.3068 20.0211 18 19.59 L 18 13.5 C 18 12.9477 17.5523 12.5 17 12.5 Z M 47 12.5 C 46.4477 12.5 46 12.9477 46 13.5 L 46 19.61 L 48 21 L 48 13.5 C 48 12.9477 47.5523 12.5 47 12.5 Z"/>
</svg>
